<?xml version="1.0" encoding="UTF-8"?>
<svg width="223px" height="227px" viewBox="0 0 223 227" version="1.1" xmlns="http://www.w3.org/2000/svg" xmlns:xlink="http://www.w3.org/1999/xlink">
    <!-- Generator: Sketch 58 (84663) - https://sketch.com -->
    <title>TWEAK</title>
    <desc>Created with Sketch.</desc>
    <g id="Page-1" stroke="none" stroke-width="1" fill="none" fill-rule="evenodd">
        <g id="TWEAK" transform="translate(0.348837, 0.000000)">
            <rect id="Rectangle" stroke="#373535" stroke-width="3" fill="#716837" x="1.5" y="1.5" width="219.302326" height="224" rx="47"></rect>
            <g id="support" stroke-width="1" transform="translate(30.651163, 33.000000)" fill="#161714">
                <path d="M0.34442364,14.8144202 L11.129138,33.6902873 C11.4929169,34.3281355 12.1018029,34.7896047 12.8138335,34.9682021 L22.8754263,37.484097 L57.3845159,72 L61.1975403,68.187332 L26.1483277,33.1323088 C25.803403,32.7862068 25.3708612,32.5410514 24.897283,32.4223561 L15.2294144,29.9963146 L6.04732366,13.9158862 L13.9195886,6.04206727 L30.003497,15.2348451 L32.4301687,24.9046228 C32.5477315,25.3794036 32.7939476,25.8131401 33.1388722,26.1581328 L68.1880846,61.2142656 L72,57.4004883 L37.4909104,22.8845853 L34.9755122,12.8265527 C34.79695,12.113272 34.3355719,11.5031565 33.6978496,11.1381963 L14.8245995,0.352461844 C13.7720804,-0.246560453 12.4478365,-0.0690722807 11.5894068,0.786198636 L0.805801794,11.5730423 C-0.0615004939,12.426095 -0.250044366,13.7528188 0.34442364,14.8144202 Z" id="Path" fill-rule="nonzero"></path>
                <polygon id="Path" fill-rule="nonzero" points="112 52.804329 52.8054358 112 49 108.194564 108.195671 49"></polygon>
                <path d="M42.4699175,115.293383 C41.978608,114.490367 41.0964842,114 40.142897,114 L23.857103,114 C22.9046326,114 22.021392,114.490367 21.531199,115.293383 L13.3877438,128.626534 C12.8707521,129.471237 12.8707521,130.527665 13.3877438,131.373466 L21.531199,144.706616 C22.021392,145.508536 22.9046326,146 23.857103,146 L40.142897,146 C41.0964842,146 41.978608,145.508536 42.4699175,144.706616 L50.6122562,131.373466 C51.1292479,130.527665 51.1292479,129.471237 50.6122562,128.626534 L42.4699175,115.293383 Z M38.6075549,140.666301 L25.3935619,140.666301 L18.8792441,130 L25.3935619,119.332602 L38.6075549,119.332602 L45.1218724,130 L38.6075549,140.666301 Z" id="Shape" fill-rule="nonzero"></path>
                <path d="M129.544643,64.7756703 C147.369494,64.8356212 161.869186,50.4341061 161.929139,32.6098441 C161.93802,29.8965152 161.604949,27.1942884 160.937697,24.5642245 C160.577981,23.1176338 159.113578,22.2372452 157.66694,22.5969498 C157.191759,22.7157412 156.758766,22.9610954 156.412372,23.3063677 L139.61227,40.094813 L126.282768,35.6529024 L121.83738,22.3271714 L138.637482,5.52429344 C139.691097,4.46960325 139.689986,2.76100558 138.635262,1.70742551 C138.287758,1.35993297 137.850324,1.1134687 137.371812,0.995787348 C120.085426,-3.38173154 102.524812,7.08190419 98.1471482,24.3666088 C97.4821163,26.9889015 97.1501557,29.6844669 97.1590376,32.3900247 C97.1656989,34.5149474 97.3844155,36.6332091 97.8151873,38.7137242 L38.709514,97.8163343 C36.6289305,97.3866868 34.5105986,97.1679775 32.3867157,97.160206 C14.4996915,97.160206 0,111.659419 0,129.545852 C0,147.431175 14.4996915,161.930387 32.3867157,161.930387 C50.2726298,161.930387 64.7723216,147.431175 64.7723216,129.545852 C64.76566,127.420929 64.5458333,125.302667 64.1161716,123.222152 L78.2661388,109.072653 L84.4545985,115.260908 C85.5093233,116.314488 87.2168675,116.314488 88.2715923,115.260908 L89.62053,113.910904 C90.8040422,112.735203 92.7169802,112.735203 93.9004927,113.910904 C95.0828948,115.089937 95.0851151,117.003922 93.9060438,118.186285 C93.9049337,118.187395 93.902713,118.189615 93.9004927,118.191836 L92.551555,119.540729 C91.4979404,120.594309 91.4979404,122.302907 92.551555,123.356487 L124.7462,155.550068 C133.213976,164.095278 147.005336,164.157449 155.550829,155.689953 C164.095211,147.222457 164.157384,133.430442 155.689608,124.886342 C155.644088,124.839714 155.597458,124.793086 155.550829,124.746457 L123.356183,92.5539861 C122.302569,91.500406 120.593914,91.500406 119.5403,92.5539861 L118.191362,93.9028792 C117.00674,95.079691 115.094912,95.079691 113.91029,93.9028792 C112.728998,92.7238466 112.725667,90.8098617 113.904738,89.6286088 C113.906959,89.6263883 113.909179,89.6252782 113.91029,89.6230579 L115.260337,88.2730546 C116.313952,87.2194746 116.313952,85.5108769 115.260337,84.4572968 L109.071878,78.2690419 L123.221845,64.1195422 C125.302429,64.5491897 127.42076,64.7690092 129.544643,64.7756703 Z M140.148514,156.533715 C138.187836,156.530374 136.243812,156.17622 134.40859,155.486786 L155.486435,134.408528 C158.667263,142.869363 154.3873,152.306063 145.926186,155.486786 C144.079863,156.180662 142.122515,156.535926 140.148514,156.533715 Z M109.573705,86.3923756 C106.584947,89.9572281 107.053467,95.2706457 110.618437,98.2581938 C113.751526,100.883817 118.317929,100.881597 121.447687,98.2504223 L151.734945,128.563325 C152.063575,128.893054 152.371111,129.240547 152.668654,129.59359 L129.593494,152.667988 C129.239328,152.371565 128.891824,152.064039 128.562084,151.73431 L98.2515106,121.422518 C101.240268,117.857666 100.771748,112.544248 97.2067776,109.5567 C94.0736896,106.929967 89.5061755,106.933297 86.3764184,109.563361 L82.0587075,105.245793 L105.254884,82.0847994 L109.573705,86.3923756 Z M120.471789,59.2490945 L59.2477836,120.458865 C58.5760904,121.129425 58.3063028,122.103071 58.5350114,123.023427 C62.237651,137.563717 53.4512376,152.352692 38.9093567,156.054099 C24.3685861,159.756616 9.57912231,150.970492 5.876483,136.429092 C2.17495356,121.888802 10.9613673,107.099827 25.5032479,103.39731 C29.9020061,102.278228 34.5105986,102.278228 38.9093567,103.39731 C39.8297428,103.62268 40.8012001,103.352902 41.4740034,102.685672 L102.683576,41.4747918 C103.354158,40.8042307 103.623946,39.8305853 103.393017,38.9113396 C99.7159126,24.5409101 108.384641,9.91069393 122.755545,6.23260122 C125.471185,5.53872597 128.280083,5.27227796 131.07788,5.4465793 L116.841315,19.6882259 C116.11855,20.4098558 115.865416,21.4789785 116.188495,22.4481831 L121.585356,38.6415612 C121.855143,39.4464562 122.487978,40.0792701 123.29401,40.3468285 L139.487923,45.7446211 C140.45605,46.0676893 141.525208,45.8156739 142.247972,45.0940437 L156.484538,30.8579486 C156.516735,31.3730814 156.533744,31.8826633 156.533744,32.3900247 C156.608884,47.2189667 144.649414,59.301274 129.819982,59.3778777 C127.527343,59.3889799 125.242476,59.1069889 123.022002,58.5385665 C122.101616,58.308755 121.127939,58.5774236 120.457356,59.2479844 L120.471789,59.2479844 L120.471789,59.2490945 Z" id="Shape" fill-rule="nonzero"></path>
                <polygon id="Path" fill-rule="nonzero" points="140 136.158798 136.158798 140 109 112.841202 112.840085 109"></polygon>
            </g>
        </g>
    </g>
</svg>